<?xml version="1.0" encoding="iso-8859-1"?>
<!-- Generator: Adobe Illustrator 19.0.0, SVG Export Plug-In . SVG Version: 6.00 Build 0)  -->
<svg version="1.1" id="Capa_1" xmlns="http://www.w3.org/2000/svg" xmlns:xlink="http://www.w3.org/1999/xlink" x="0px" y="0px"
	 viewBox="0 0 480 480" style="enable-background:new 0 0 480 480;" xml:space="preserve">
<g>
	<g>
		<path d="M454.672,194.872C470.024,183.176,480,164.752,480,144c0-35.288-28.712-64-64-64c-35.288,0-64,28.712-64,64
			c0,19.12,8.472,36.264,21.808,48h-42.496l-53.656-53.656c-3.128-3.128-8.184-3.128-11.312,0l-32,32
			c-3.128,3.128-3.128,8.184,0,11.312l72,72C307.84,255.16,309.872,256,312,256h64v56h-40h-97.056l39.712-59.56l-13.312-8.872
			L219.72,312H200v-40c0-4.424-3.576-8-8-8h-64v-32c0-16.864-10.528-31.256-25.328-37.128C118.024,183.176,128,164.752,128,144
			c0-35.288-28.712-64-64-64S0,108.712,0,144c0,20.752,9.976,39.176,25.328,50.872C10.528,200.744,0,215.136,0,232v112
			c0,22.056,17.944,40,40,40v96h16v-96h56v88c0,4.424,3.576,8,8,8h56c4.424,0,8-3.576,8-8V352c0-9-2.984-17.312-8.016-24H184h8h40
			v136h-32v16h80v-16h-32V328h56.208c-5.08,6.704-8.208,14.96-8.208,24v120c0,4.424,3.576,8,8,8h56c4.424,0,8-3.576,8-8v-88h56v96
			h16v-96c22.056,0,40-17.944,40-40V232C480,215.136,469.472,200.744,454.672,194.872z M16,144c0-26.472,21.528-48,48-48
			s48,21.528,48,48s-21.528,48-48,48S16,170.472,16,144z M184,312H80v-64H64v72c0,4.424,3.576,8,8,8h72c13.232,0,24,10.768,24,24
			v112h-40v-88c0-4.424-3.576-8-8-8H40c-13.232,0-24-10.768-24-24V232c0-13.232,10.768-24,24-24h48c13.232,0,24,10.768,24,24v40
			c0,4.424,3.576,8,8,8h64V312z M368,144c0-26.472,21.528-48,48-48s48,21.528,48,48s-21.528,48-48,48S368,170.472,368,144z M464,344
			c0,13.232-10.768,24-24,24h-80c-4.424,0-8,3.576-8,8v88h-40V352c0-13.232,10.768-24,24-24h48c4.424,0,8-3.576,8-8v-72
			c0-4.424-3.576-8-8-8h-68.688l-64-64L272,155.312l50.344,50.344C323.84,207.16,325.872,208,328,208h112c13.232,0,24,10.768,24,24
			V344z"/>
	</g>
</g>
<g>
	<g>
		<path d="M320,0H160c-13.232,0-24,10.768-24,24v64c0,13.232,10.768,24,24,24h8v48c0,3.232,1.944,6.16,4.936,7.392
			c0.992,0.416,2.032,0.608,3.064,0.608c2.08,0,4.128-0.816,5.656-2.344L235.312,112H320c13.232,0,24-10.768,24-24V24
			C344,10.768,333.232,0,320,0z M328,88c0,4.416-3.584,8-8,8h-88c-2.128,0-4.16,0.84-5.656,2.344L184,140.688V104
			c0-4.424-3.576-8-8-8h-16c-4.416,0-8-3.584-8-8V24c0-4.416,3.584-8,8-8h160c4.416,0,8,3.584,8,8V88z"/>
	</g>
</g>
<g>
	<g>
		<rect x="168" y="32" width="48" height="16"/>
	</g>
</g>
<g>
	<g>
		<rect x="168" y="64" width="144" height="16"/>
	</g>
</g>
<g>
	<g>
		<rect x="232" y="32" width="80" height="16"/>
	</g>
</g>
<g>
</g>
<g>
</g>
<g>
</g>
<g>
</g>
<g>
</g>
<g>
</g>
<g>
</g>
<g>
</g>
<g>
</g>
<g>
</g>
<g>
</g>
<g>
</g>
<g>
</g>
<g>
</g>
<g>
</g>
</svg>
